<svg width="70" height="51" viewBox="0 0 70 51" fill="none" xmlns="http://www.w3.org/2000/svg">
<path d="M23.2533 17.2667L24.1066 18.5733C23.2355 21.6311 21.431 23.16 18.6933 23.16C18.071 23.16 17.5288 23.0444 17.0666 22.8133C16.6221 22.5822 16.2844 22.3067 16.0533 21.9867C15.8221 21.6667 15.6355 21.2578 15.4933 20.76C15.2977 20.0133 15.191 19.0267 15.1733 17.8C15.1733 16.5733 15.0221 15.7289 14.7199 15.2667C14.4355 14.8044 13.8844 14.5467 13.0666 14.4933L13.3599 12.2267C13.3955 12.2267 13.4221 12.2267 13.4399 12.2267C14.471 12.2267 15.3244 11.9333 15.9999 11.3467C16.7288 10.6889 17.0933 9.84444 17.0933 8.81333C17.0933 7.78222 16.6044 6.91111 15.6266 6.2C14.6666 5.48889 13.4221 5.13333 11.8933 5.13333C9.91992 5.13333 8.39992 5.62222 7.33325 6.6C6.76436 7.13333 6.47992 7.77333 6.47992 8.52C6.47992 9.46222 7.19992 10.0311 8.63992 10.2267L8.26659 12.2267C7.18214 12.1733 6.22214 11.8089 5.38659 11.1333C4.55103 10.4578 4.13325 9.58667 4.13325 8.52C4.13325 6.65333 4.91547 5.22222 6.47992 4.22666C8.04436 3.21333 10.0266 2.70666 12.4266 2.70666C13.9733 2.70666 15.3333 2.89333 16.5066 3.26667C18.5155 3.94222 19.8488 5.11555 20.5066 6.78666C20.7199 7.37333 20.8266 7.85333 20.8266 8.22667C20.8266 8.58222 20.8266 8.82222 20.8266 8.94667C20.7555 9.92444 20.391 10.8844 19.7333 11.8267C19.0933 12.7689 18.1244 13.4178 16.8266 13.7733C17.6088 13.9333 18.1421 14.2711 18.4266 14.7867C18.711 15.3022 18.8621 16.0844 18.8799 17.1333C18.8977 18.9289 18.9777 20.0222 19.1199 20.4133C19.2799 20.7867 19.5999 20.9733 20.0799 20.9733C21.3777 20.9733 22.4355 19.7378 23.2533 17.2667ZM6.90659 23.16C5.96436 23.16 5.20881 22.8756 4.63992 22.3067C4.07103 21.7378 3.78659 21.0356 3.78659 20.2C3.78659 18.0311 5.3777 16.2178 8.55992 14.76C9.19992 9.78222 9.52881 7.23111 9.54659 7.10667C10.2933 6.62667 11.1377 6.38667 12.0799 6.38667C12.471 6.38667 12.9155 6.44 13.4133 6.54666L11.7333 17.9333C11.1999 21.4178 9.59103 23.16 6.90659 23.16ZM5.75992 19.88C5.75992 20.4489 6.06214 20.7333 6.66659 20.7333C7.3777 20.7333 7.83103 20.0933 8.02659 18.8133L8.26659 17C6.59547 17.9778 5.75992 18.9378 5.75992 19.88ZM33.9185 23.1333C32.2829 23.1333 31.1985 22.5644 30.6651 21.4267C29.7407 22.5822 28.5496 23.16 27.0918 23.16C25.6518 23.16 24.434 22.6711 23.4385 21.6933C22.4607 20.7156 21.9718 19.4267 21.9718 17.8267C21.9718 15.4978 22.6562 13.64 24.0251 12.2533C25.394 10.8667 27.1274 10.1733 29.2251 10.1733C29.2785 10.1733 29.3318 10.1733 29.3851 10.1733C30.274 10.1733 31.0918 10.3244 31.8385 10.6267C32.3185 10.3244 32.8962 10.1733 33.5718 10.1733C34.2651 10.1733 34.7629 10.2622 35.0651 10.44C34.9051 11.7556 34.7362 13.0533 34.5585 14.3333C34.3807 15.5956 34.2562 16.4933 34.1851 17.0267C34.0251 18.2356 33.9451 19.1067 33.9451 19.64C33.9451 20.3511 34.2296 20.7067 34.7985 20.7067C35.2429 20.7067 35.714 20.4133 36.2118 19.8267C36.7096 19.2222 37.1451 18.28 37.5185 17C38.034 17.4622 38.3896 17.9778 38.5851 18.5467C38.0696 20.2356 37.3762 21.4267 36.5051 22.12C35.634 22.7956 34.7718 23.1333 33.9185 23.1333ZM29.6251 12.2533C28.4874 12.2533 27.5807 12.6889 26.9051 13.56C26.2474 14.4133 25.8562 15.6933 25.7318 17.4C25.714 17.56 25.7051 17.7111 25.7051 17.8533C25.7051 18.7244 25.9096 19.4178 26.3185 19.9333C26.7451 20.4489 27.2874 20.7067 27.9451 20.7067C29.0651 20.7067 29.9096 19.9156 30.4785 18.3333L31.1185 12.5733C30.6029 12.36 30.1051 12.2533 29.6251 12.2533ZM44.2612 20.0133L44.9012 14.0667C44.9012 13.5867 44.7767 13.1867 44.5278 12.8667C44.2789 12.5467 43.8612 12.3867 43.2745 12.3867C42.7056 12.3867 42.2167 12.6444 41.8078 13.16C41.4167 13.6578 41.1678 14.2889 41.0612 15.0533C40.4212 19.9244 40.0834 22.5733 40.0478 23H36.4478L37.9145 10.44C38.6612 10.2444 39.2301 10.1467 39.6212 10.1467C40.8123 10.1467 41.4345 10.5822 41.4878 11.4533C42.3589 10.6 43.3989 10.1733 44.6078 10.1733C45.8345 10.1733 46.7945 10.4756 47.4878 11.08C48.1812 11.6844 48.5278 12.4489 48.5278 13.3733C48.5278 13.6222 48.4745 14.0933 48.3678 14.7867C47.9589 17.4889 47.7545 19.0622 47.7545 19.5067C47.7545 20.3244 48.0301 20.7333 48.5812 20.7333C49.7901 20.7333 50.7056 19.4711 51.3278 16.9467C51.9323 17.5867 52.2967 18.0933 52.4212 18.4667C51.4789 21.5956 49.8434 23.16 47.5145 23.16C46.4123 23.16 45.5945 22.8222 45.0612 22.1467C44.5278 21.4711 44.2612 20.76 44.2612 20.0133ZM57.6626 10.1733C58.6404 10.1733 59.5382 10.3333 60.356 10.6533C60.9071 10.3156 61.4849 10.1467 62.0893 10.1467C62.6937 10.1467 63.1737 10.2267 63.5293 10.3867L62.5693 17.9067C63.8849 16.8933 64.8804 15.9689 65.556 15.1333L66.3293 16.76C65.316 17.8267 63.9649 18.9644 62.276 20.1733L61.556 25.7467C61.3604 27.4178 60.8093 28.6978 59.9026 29.5867C59.0137 30.4933 57.8582 30.9467 56.436 30.9467C55.6182 30.9467 54.8182 30.68 54.036 30.1467C53.2182 29.5778 52.8093 28.6622 52.8093 27.4C52.8093 25.8533 53.5471 24.44 55.0226 23.16C53.7604 23.0711 52.676 22.5467 51.7693 21.5867C50.8626 20.6267 50.4093 19.3733 50.4093 17.8267C50.4093 15.4978 51.0937 13.64 52.4626 12.2533C53.8315 10.8667 55.5649 10.1733 57.6626 10.1733ZM58.0626 12.2533C56.9249 12.2533 56.0182 12.6889 55.3426 13.56C54.6849 14.4133 54.2937 15.6933 54.1693 17.4C54.1515 17.56 54.1426 17.7111 54.1426 17.8533C54.1426 18.7244 54.3471 19.4178 54.756 19.9333C55.1826 20.4489 55.7249 20.7067 56.3826 20.7067C57.5026 20.7067 58.3471 19.9244 58.916 18.36L59.5826 12.5733C59.0315 12.36 58.5249 12.2533 58.0626 12.2533ZM54.8626 27C54.8626 27.48 54.996 27.8533 55.2626 28.12C55.5471 28.4044 55.8671 28.5467 56.2226 28.5467C57.2182 28.5467 57.796 27.9156 57.956 26.6533L58.4093 22.6533C56.0449 24.0578 54.8626 25.5067 54.8626 27Z" fill="white"/>
<path d="M32.2 33.04C32.2 31.1378 33.0267 29.6445 34.68 28.56C36.3333 27.4756 38.2356 26.9333 40.3867 26.9333C43.1422 26.9333 45.56 27.7245 47.64 29.3067C48.6711 30.1067 49.4711 31.1733 50.04 32.5067C50.6089 33.8222 50.8933 35.28 50.8933 36.88C50.8933 40.0267 49.9956 42.5867 48.2 44.56C46.3333 46.5689 43.9956 47.5733 41.1867 47.5733C40.5644 47.5733 39.9067 47.4933 39.2133 47.3333C38.52 47.1733 37.9689 46.96 37.56 46.6933C36.9022 47.1911 36.0578 47.44 35.0267 47.44C34.0133 47.44 33.2222 47.1556 32.6533 46.5867C32.0844 46.0178 31.8 45.2889 31.8 44.4C31.8 42.3022 33.3911 40.5156 36.5733 39.04C36.6622 38.2933 36.7867 37.2889 36.9467 36.0267C37.1244 34.7467 37.2578 33.7156 37.3467 32.9333C37.4533 32.1511 37.5244 31.6356 37.56 31.3867C38.2889 30.9245 39.1333 30.6933 40.0933 30.6933C40.5378 30.6933 40.9644 30.7378 41.3733 30.8267L39.6933 42.2133C39.5333 43.2267 39.3111 44.0711 39.0267 44.7467C39.5778 44.8889 40.0222 44.96 40.36 44.96C42.4044 44.96 43.9867 44.1867 45.1067 42.64C46.2622 41.0222 46.84 39.0667 46.84 36.7733C46.84 33.84 45.7822 31.7333 43.6667 30.4533C42.4933 29.7422 41.2044 29.3867 39.8 29.3867C38.0044 29.3867 36.5822 29.8756 35.5333 30.8533C34.9289 31.4045 34.6267 32.0711 34.6267 32.8533C34.6267 33.2622 34.7511 33.6533 35 34.0267C35.2489 34.3822 35.6844 34.5867 36.3067 34.64L36.04 36.3733C34.7422 36.3022 33.7733 35.9467 33.1333 35.3067C32.5111 34.6489 32.2 33.8933 32.2 33.04ZM33.7733 44.0533C33.7733 44.6933 34.0756 45.0133 34.68 45.0133C34.9289 45.0133 35.1867 44.8533 35.4533 44.5333C35.7378 44.1956 35.9333 43.6711 36.04 42.96L36.28 41.3067C34.6089 42.2489 33.7733 43.1645 33.7733 44.0533ZM56.6838 41.36C57.786 41.1289 58.6038 40.6845 59.1371 40.0267C59.6882 39.3689 59.9638 38.7378 59.9638 38.1333C59.9638 37.5111 59.7949 37.0933 59.4571 36.88C59.1371 36.6489 58.7815 36.5333 58.3904 36.5333C57.5549 36.5333 56.8171 37.0045 56.1771 37.9467C55.5549 38.8711 55.2438 39.9822 55.2438 41.28C55.2438 42.56 55.546 43.52 56.1504 44.16C56.7726 44.7822 57.5371 45.0933 58.4438 45.0933C59.7771 45.0933 61.0571 44.6311 62.2838 43.7067C63.5104 42.7822 64.506 41.5733 65.2704 40.08C65.6615 40.4533 66.0171 40.9156 66.3371 41.4667C65.7504 42.8 64.7104 44.1067 63.2171 45.3867C62.4704 46.0089 61.5815 46.5156 60.5504 46.9067C59.5371 47.2978 58.4882 47.4933 57.4038 47.4933C55.626 47.4933 54.2215 46.9511 53.1904 45.8667C52.0882 44.6933 51.5371 43.1911 51.5371 41.36C51.5371 39.5289 52.2215 37.9289 53.5904 36.56C54.9771 35.1911 56.6304 34.5067 58.5504 34.5067C59.9193 34.5067 61.0304 34.8089 61.8838 35.4133C62.7371 36 63.1726 36.8 63.1904 37.8133C63.1904 39.1822 62.6393 40.2933 61.5371 41.1467C60.4526 42 58.9593 42.5956 57.0571 42.9333L56.6838 41.36Z" fill="white"/>
</svg>
