<svg width="82" height="24" viewBox="0 0 82 24" fill="none" xmlns="http://www.w3.org/2000/svg">
<path d="M14.28 12.28C14.5067 12.28 14.62 12.5867 14.62 13.2C14.62 13.5333 14.48 13.94 14.2 14.42C13.92 14.8867 13.5533 15.32 13.1 15.72C12.66 16.1067 12.1667 16.4267 11.62 16.68C11.0733 16.9333 10.5533 17.06 10.06 17.06C9.56667 17.06 9.18 16.9667 8.9 16.78C8.62 16.5933 8.4 16.34 8.24 16.02C8.01333 15.5667 7.82667 14.7067 7.68 13.44C7.53333 12.16 7.38667 11.2667 7.24 10.76C6.89333 10.6933 6.58667 10.56 6.32 10.36C6.06667 10.1467 5.94 9.89333 5.94 9.6C5.94 9.29333 6.07333 9.07333 6.34 8.94C6.62 8.80667 6.93333 8.74 7.28 8.74C7.64 8.74 7.96 8.82667 8.24 9C8.61333 8.69333 8.91333 8.33333 9.14 7.92C9.38 7.49333 9.5 6.92667 9.5 6.22C9.5 5.5 9.26 4.92667 8.78 4.5C8.3 4.07333 7.59333 3.86 6.66 3.86C5.74 3.86 5.03333 3.93333 4.54 4.08C4.04667 4.22667 3.62 4.38667 3.26 4.56C2.91333 4.73333 2.6 4.89333 2.32 5.04C2.05333 5.18667 1.8 5.26 1.56 5.26C1.32 5.26 1.2 5.18667 1.2 5.04C1.2 4.88 1.32667 4.62667 1.58 4.28C1.83333 3.93333 2.20667 3.58667 2.7 3.24C3.94 2.37333 5.34 1.94667 6.9 1.96C8.46 1.96 9.74667 2.25333 10.76 2.84C11.9467 3.53333 12.54 4.57333 12.54 5.96C12.5533 7.10667 12.2533 8.06 11.64 8.82C11.0267 9.58 10.2667 10.1267 9.36 10.46C9.56 10.9 9.72 11.3733 9.84 11.88C9.97333 12.3867 10.1 12.8533 10.22 13.28C10.34 13.7067 10.4733 14.06 10.62 14.34C10.78 14.62 10.9667 14.76 11.18 14.76C11.4067 14.76 11.6733 14.6333 11.98 14.38C12.3 14.1133 12.6133 13.8267 12.92 13.52C13.2267 13.2133 13.5 12.9333 13.74 12.68C13.9933 12.4133 14.1733 12.28 14.28 12.28ZM5.58 5.08C5.75333 5.08 5.84 5.30667 5.84 5.76C5.84 6.21333 5.81333 6.64 5.76 7.04C5.64 7.81333 5.48667 8.53333 5.3 9.2C4.82 11.0133 4.58 12.0733 4.58 12.38V15.32C4.58 16.04 4.30667 16.5333 3.76 16.8C3.50667 16.92 3.26 17.0333 3.02 17.14C2.79333 17.2467 2.53333 17.3 2.24 17.3C1.68 17.3 1.4 16.66 1.4 15.38C1.4 14.0867 1.7 12.46 2.3 10.5C2.9 8.54 3.52667 7.04667 4.18 6.02C4.31333 5.82 4.50667 5.61333 4.76 5.4C5.01333 5.18667 5.28667 5.08 5.58 5.08ZM25.9073 12.28C26.1473 12.28 26.2673 12.5867 26.2673 13.2C26.2673 13.5333 26.1273 13.94 25.8473 14.42C25.5673 14.8867 25.2007 15.32 24.7473 15.72C24.3073 16.1067 23.814 16.4267 23.2673 16.68C22.7207 16.9333 22.1873 17.06 21.6673 17.06C20.9607 17.06 20.4873 16.44 20.2473 15.2C19.9007 15.7733 19.4473 16.2467 18.8873 16.62C18.3273 16.98 17.574 17.16 16.6273 17.16C15.694 17.16 14.9407 16.8667 14.3673 16.28C13.794 15.6933 13.514 14.98 13.5273 14.14C13.5273 11.8733 14.2807 10.0867 15.7873 8.78C16.4273 8.23333 17.0207 7.87333 17.5673 7.7C18.1273 7.52667 18.714 7.44 19.3273 7.44C19.9407 7.44 20.4407 7.54667 20.8273 7.76C21.014 7.37333 21.2273 7.18 21.4673 7.18C21.934 7.18 22.374 7.38667 22.7873 7.8C23.214 8.2 23.4273 8.58 23.4273 8.94C23.2407 9.38 22.9673 9.90667 22.6073 10.52C22.5007 11.1333 22.4473 11.9933 22.4473 13.1C22.4473 14.2067 22.5873 14.76 22.8673 14.76C23.214 14.76 24.054 14.0667 25.3873 12.68C25.6273 12.4133 25.8007 12.28 25.9073 12.28ZM16.4673 13.48C16.4673 14.5067 16.8473 15.02 17.6073 15.02C18.4207 15.0067 19.094 14.5733 19.6273 13.72C19.814 13.4267 19.9673 13.0667 20.0873 12.64C20.0873 11.1467 20.2207 9.86667 20.4873 8.8C19.4073 9.01333 18.4673 9.53333 17.6673 10.36C16.8673 11.1867 16.4673 12.2267 16.4673 13.48ZM27.928 7.02C28.408 7.02 28.8613 7.48 29.288 8.4C29.9146 7.74667 30.688 7.42 31.608 7.42C32.5413 7.42 33.2413 7.62667 33.708 8.04C34.1746 8.44 34.408 9.01333 34.408 9.76C34.408 10.4933 34.308 11.24 34.108 12C33.9213 12.76 33.7813 13.3067 33.688 13.64C33.608 13.96 33.568 14.2267 33.568 14.44C33.568 14.6533 33.6413 14.76 33.788 14.76C33.988 14.76 34.2346 14.6333 34.528 14.38C34.8213 14.1267 35.1146 13.8533 35.408 13.56C35.7013 13.2533 35.968 12.9733 36.208 12.72C36.4613 12.4667 36.6346 12.34 36.728 12.34C36.9146 12.34 37.008 12.5667 37.008 13.02C37.008 13.9533 36.548 14.8533 35.628 15.72C34.0813 16.6267 33.0946 17.08 32.668 17.08C32.628 17.08 32.6013 17.0733 32.588 17.06C31.5213 17.06 30.988 16.2067 30.988 14.5C30.988 13.7667 31.0546 13.0933 31.188 12.48C31.3346 11.8667 31.4413 11.42 31.508 11.14C31.5746 10.86 31.608 10.5733 31.608 10.28C31.608 9.8 31.328 9.56 30.768 9.56C30.2213 9.56 29.6946 9.97333 29.188 10.8C28.6946 11.6133 28.3613 12.46 28.188 13.34V13.48C28.188 13.9333 28.2546 14.4 28.388 14.88C28.5346 15.36 28.608 15.6933 28.608 15.88C28.608 16.3333 28.0413 16.78 26.908 17.22C26.7346 17.2867 26.5813 17.32 26.448 17.32C26.1146 17.32 25.8813 17.1467 25.748 16.8C25.628 16.4533 25.568 15.9133 25.568 15.18C25.568 13.2867 25.6413 11.92 25.788 11.08C25.988 9.82667 26.4413 8.66 27.148 7.58C27.388 7.20667 27.648 7.02 27.928 7.02ZM43.6702 7.9C43.8568 7.31333 44.1568 7.02 44.5702 7.02C44.9435 7.03333 45.2968 7.3 45.6302 7.82C45.9635 8.32667 46.1302 8.72 46.1302 9C46.1035 9.54667 45.9368 10.42 45.6302 11.62C45.3235 12.8067 44.8902 14.3533 44.3302 16.26C45.2102 15.58 46.0768 14.6933 46.9302 13.6C47.2235 13.2267 47.4702 12.9267 47.6702 12.7C47.8835 12.46 48.0568 12.34 48.1902 12.34C48.3768 12.34 48.4702 12.5533 48.4702 12.98C48.4702 13.82 47.9968 14.8 47.0502 15.92C46.1168 17.04 44.9702 17.9133 43.6102 18.54C43.4502 19.0733 43.2768 19.58 43.0902 20.06C42.9035 20.54 42.6635 20.96 42.3702 21.32C41.7302 22.0933 40.7568 22.48 39.4502 22.48C38.5702 22.48 37.8168 22.2267 37.1902 21.72C36.5768 21.2133 36.2702 20.58 36.2702 19.82C36.2702 19.4067 36.4035 19.08 36.6702 18.84C36.9502 18.6 37.3302 18.4067 37.8102 18.26C38.2902 18.1133 38.8502 17.9867 39.4902 17.88C40.1435 17.7733 40.8368 17.64 41.5702 17.48C41.6368 17.2533 41.6902 17.0333 41.7302 16.82C41.7835 16.5933 41.8368 16.3667 41.8902 16.14C41.1568 16.82 40.2568 17.16 39.1902 17.16C38.1368 17.16 37.3235 16.8667 36.7502 16.28C36.1768 15.6933 35.8968 14.98 35.9102 14.14C35.9102 11.8733 36.6635 10.0867 38.1702 8.78C39.2102 7.88667 40.2902 7.44 41.4102 7.44C41.7968 7.44 42.2102 7.48667 42.6502 7.58C43.1035 7.67333 43.4435 7.78 43.6702 7.9ZM38.8502 13.48C38.8502 14.5067 39.2302 15.02 39.9902 15.02C40.4168 15.02 40.8502 14.86 41.2902 14.54C41.7302 14.22 42.0835 13.7 42.3502 12.98C42.5502 12.0467 42.7568 11.1867 42.9702 10.4C43.1968 9.61333 43.3502 9.06667 43.4302 8.76C42.3102 8.90667 41.2635 9.40667 40.2902 10.26C39.3302 11.1133 38.8502 12.1867 38.8502 13.48ZM40.9502 19.32C40.4702 19.4133 40.0502 19.4867 39.6902 19.54C39.3302 19.5933 39.0302 19.64 38.7902 19.68C38.5635 19.72 38.3902 19.7667 38.2702 19.82C38.1635 19.8733 38.1102 19.96 38.1102 20.08C38.1102 20.32 38.2568 20.5267 38.5502 20.7C38.8568 20.8733 39.1568 20.9533 39.4502 20.94C39.9568 20.94 40.4568 20.4 40.9502 19.32ZM55.1828 13.54C55.1828 13.38 55.2895 13.3 55.5028 13.3C55.7161 13.3 56.3761 13.4467 57.4828 13.74C57.7361 11.5533 58.4495 9.18 59.6228 6.62C60.0361 5.68667 60.5295 5.22 61.1028 5.22C61.2095 5.22 61.3095 5.33333 61.4028 5.56C61.5095 5.78667 61.5628 6.06667 61.5628 6.4C61.5628 6.8 61.3495 7.9 60.9228 9.7C60.5095 11.5 60.2361 13.0667 60.1028 14.4C60.9828 14.6 61.7561 14.7 62.4228 14.7C63.1028 14.7 63.7228 14.5267 64.2828 14.18C64.8428 13.82 65.3228 13.36 65.7228 12.8C66.5495 11.6133 66.9628 10.1867 66.9628 8.52C66.9495 5.44 65.7228 3.9 63.2828 3.9C62.4161 3.91333 60.8828 4.3 58.6828 5.06C58.2561 5.20667 57.8828 5.28 57.5628 5.28C57.2428 5.28 57.0828 5.18667 57.0828 5C57.0828 4.74667 57.2695 4.44667 57.6428 4.1C58.0161 3.75333 58.4961 3.42 59.0828 3.1C60.5228 2.32667 61.9228 1.94 63.2828 1.94C65.1495 1.94 66.6828 2.44 67.8828 3.44C69.2961 4.62667 69.9961 6.42667 69.9828 8.84C69.9828 9.86667 69.8228 10.88 69.5028 11.88C69.1828 12.88 68.6961 13.7733 68.0428 14.56C67.3895 15.3333 66.5628 15.96 65.5628 16.44C64.5628 16.92 63.3828 17.16 62.0228 17.16C61.4761 17.16 60.7828 17.04 59.9428 16.8C59.8495 17.0533 59.6161 17.18 59.2428 17.18C58.5495 17.18 58.0761 17.0667 57.8228 16.84C57.5828 16.6 57.4428 16.2133 57.4028 15.68C56.7628 15.32 56.2295 14.9467 55.8028 14.56C55.3895 14.1733 55.1828 13.8333 55.1828 13.54ZM75.5334 14.82C76.5734 14.82 77.5801 14.4067 78.5534 13.58C78.9134 13.2733 79.2068 12.9933 79.4334 12.74C79.6601 12.4733 79.8334 12.34 79.9534 12.34C80.1401 12.34 80.2334 12.5267 80.2334 12.9C80.2334 13.2733 80.1334 13.6933 79.9334 14.16C79.7334 14.6133 79.4001 15.06 78.9334 15.5C77.7868 16.58 76.2134 17.12 74.2134 17.12C72.6268 17.12 71.5468 16.5467 70.9734 15.4C70.7734 15 70.6734 14.4267 70.6734 13.68C70.6734 12.9333 70.8201 12.16 71.1134 11.36C71.4068 10.5467 71.7934 9.84667 72.2734 9.26C72.7668 8.67333 73.3334 8.22 73.9734 7.9C74.6134 7.56667 75.2934 7.4 76.0134 7.4C76.7468 7.4 77.3068 7.58 77.6934 7.94C78.0934 8.3 78.2934 8.76667 78.2934 9.34C78.2934 9.91333 78.1468 10.3867 77.8534 10.76C77.5734 11.12 77.2068 11.4267 76.7534 11.68C76.3001 11.92 75.7934 12.14 75.2334 12.34C74.6868 12.5267 74.1468 12.74 73.6134 12.98V13.48C73.6268 13.96 73.8268 14.3 74.2134 14.5C74.6001 14.7 75.0401 14.8067 75.5334 14.82ZM75.1934 9.18C74.5001 9.18 74.0201 9.98667 73.7534 11.6C74.0334 11.4133 74.2934 11.2467 74.5334 11.1C74.7868 10.9533 75.0068 10.8133 75.1934 10.68C75.5934 10.3867 75.8001 10.0533 75.8134 9.68C75.8134 9.34667 75.6068 9.18 75.1934 9.18Z" fill="currentColor"/>
</svg>
